<svg xmlns="http://www.w3.org/2000/svg" viewBox="0 0 547.68 364.94"><title>20years</title><g id="fa19d740-1732-4707-b593-b2bcae61ad6c" data-name="Layer 2"><g id="94d265f1-5b63-4c34-b49d-5a4296472346" data-name="Layer 1"><polygon points="213.69 356.28 369.53 266.3 369.53 98.64 213.69 8.66 57.85 98.64 57.85 266.3 213.69 356.28" style="fill:none;stroke:#13e2ce;stroke-miterlimit:10;stroke-width:15px"/><path d="M242.78,82.41c31.32,0,58.26,20.27,58.26,53.43,0,31.78-19.11,46.52-53,55-22.57,5.75-34.54,10.59-34.54,25.56v2.76h86.58v27.63h-117V219.2c0-29.25,21-43.52,50.66-51.58,23-6.22,36.84-13.82,36.84-32.7,0-15.89-10.82-25.33-27.4-25.33S212.61,119,212.61,140v5.07H182.22v-5.53C182.22,101.76,210.08,82.41,242.78,82.41Z" style="fill:#090968"/><path d="M375.2,82.41c36.84,0,61.71,24,61.71,64.94v37.77c0,42.37-24.87,64.94-61.71,64.94s-61.72-22.57-61.72-64.94V147.35C313.48,106.36,338.35,82.41,375.2,82.41ZM343.88,186.5c0,22.8,10.36,36.38,31.32,36.38,21.64,0,31.31-14.5,31.31-36.38V146c0-22.34-12.2-36.38-31.31-36.38-19.81,0-31.32,15-31.32,36.38Z" style="fill:#090968"/><path d="M486,153.11v-35h27.18v35h34.54v26.25H513.14v35H486v-35H451.42V153.11Z" style="fill:#090968"/><text transform="translate(176.85 293.98)" style="font-size:40.489559173583984px;fill:#090968;font-family:SpaceGrotesk-Bold, Space Grotesk;font-weight:700"><tspan style="letter-spacing:-0.009997272494734595em">y</tspan><tspan x="21.78" y="0">ea</tspan><tspan x="66.24" y="0" style="letter-spacing:-0.009985213058673396em">r</tspan><tspan x="80.98" y="0">s </tspan><tspan x="112.48" y="0" style="letter-spacing:-0.004992606529336698em">o</tspan><tspan x="135.44" y="0" style="letter-spacing:-0.000012059436061199754em">f </tspan><tspan x="163.21" y="0" style="letter-spacing:-0.01998248555340799em">e</tspan><tspan x="184.19" y="0">xperience</tspan></text><circle cx="91.11" cy="95.55" r="91.11" style="fill:#fff"/><path d="M92.3,49.2a46.35,46.35,0,1,0,42.62,61.47l13.41,4.65a59.85,59.85,0,0,1-7.63,15l7,10.39-11.49,11.49-10.47-7a59.1,59.1,0,0,1-14.9,7.63l-.45,12.61-16.08,2.52L90,156.07a57.63,57.63,0,0,1-8.36-.71,63.18,63.18,0,0,1-8.21-1.88l-7.76,9.89L51.16,156l3.43-12.11A62.1,62.1,0,0,1,42.75,132l-12.11,3.45L23.23,121l9.93-7.8a59.52,59.52,0,0,1-2.63-16.54l-11.8-4.35,2.52-16,12.61-.46a59.74,59.74,0,0,1,7.59-15l-7-10.47L45.93,38.89,56.4,46a61,61,0,0,1,14.93-7.64l.49-12.61,16.05-2.52Z" style="fill:#00c4b3;fill-rule:evenodd"/><path d="M116,49.61a2.36,2.36,0,0,1-3.24.88l-.56-.32a2.4,2.4,0,0,1-.89-3.25l6.87-12a2.39,2.39,0,0,1,3.25-.88l.55.32a2.37,2.37,0,0,1,.88,3.24Z" style="fill:#00c4b3"/><path d="M133.14,69.68a2.38,2.38,0,0,1-3.25-.85l-.31-.54a2.39,2.39,0,0,1,.86-3.26l11.92-7a2.38,2.38,0,0,1,3.25.86l.31.52a2.38,2.38,0,0,1-.85,3.25Z" style="fill:#00c4b3"/><path d="M138.05,95.64a2.37,2.37,0,0,1-2.38-2.36v-.63A2.39,2.39,0,0,1,138,90.26l13.8-.1a2.39,2.39,0,0,1,2.4,2.36v.62a2.38,2.38,0,0,1-2.36,2.39Z" style="fill:#00c4b3"/><path d="M99.43,94.75a7.6,7.6,0,0,1-11.19,6.7l-3.84,3.84-2.59-2.58L85.53,99a7.59,7.59,0,0,1,6.31-11.84,7.48,7.48,0,0,1,4.47,1.46l20-18.41,1,1L98.77,91.63a7.68,7.68,0,0,1,.66,3.12Z" style="fill:#00c4b3"/></g></g></svg>