<svg xmlns="http://www.w3.org/2000/svg" viewBox="0 0 428.32 392.01"><title>efficiency</title><g style="isolation:isolate"><g id="e1427716-a104-4c92-8abf-fbcb5866367d" data-name="Layer 2"><g id="887f9333-96b6-440e-a593-41415b6c44bc" data-name="Layer 1"><text transform="translate(0 267.79)" style="font-size:96.27686309814453px;fill:#090968;font-family:SpaceGrotesk-Bold, Space Grotesk;font-weight:700;letter-spacing:-0.028401164225849165em">D<tspan x="56.57" y="0" style="letter-spacing:-0.03690122694772831em">r</tspan><tspan x="89.03" y="0" style="letter-spacing:-0.034203116346272634em">i</tspan><tspan x="108.65" y="0" style="letter-spacing:-0.04899200828958981em">v</tspan><tspan x="155.15" y="0" style="letter-spacing:-0.015012043947948844em">e</tspan><tspan style="letter-spacing:-0.03370609597232028em"><tspan x="0" y="90.43">e</tspan><tspan x="48.55" y="90.43" style="letter-spacing:-0.0313021402860609em">ffi</tspan><tspan x="135.65" y="90.43" style="letter-spacing:-0.035105867637737126em">c</tspan><tspan x="185.8" y="90.43" style="letter-spacing:-0.035694177468129716em">i</tspan><tspan x="205.28" y="90.43" style="letter-spacing:-0.027407123477944443em">e</tspan><tspan x="254.44" y="90.43" style="letter-spacing:-0.03169772793063523em">n</tspan><tspan x="308.57" y="90.43" style="letter-spacing:-0.04570558785774155em">c</tspan><tspan x="357.7" y="90.43" style="letter-spacing:-0.01500190067501104em">y</tspan></tspan></text><polygon points="277.81 335.72 428.32 248.82 428.32 86.9 277.81 0 127.31 86.9 127.31 248.82 277.81 335.72" style="fill:#13e2ce;mix-blend-mode:multiply"/><path d="M313.39,126.5h-.1a52.09,52.09,0,1,0-62.65,82.55v11.27a10.92,10.92,0,0,0,4.27,8.66v11.13a9.38,9.38,0,0,0,4.69,8.09,18.16,18.16,0,0,0,36.2,0,9.38,9.38,0,0,0,4.69-8.09V229a10.91,10.91,0,0,0,4.28-8.66V209.05a52.07,52.07,0,0,0,8.62-82.55ZM277.67,255.3h0a8.82,8.82,0,0,1-8.29-5.81H286A8.82,8.82,0,0,1,277.67,255.3ZM291,240.11H264.3v-8.86H291Zm-17-68.29a3.58,3.58,0,1,1,3.58,3.58A3.6,3.6,0,0,1,274.09,171.82Zm45.9-1.76a42.67,42.67,0,0,1-22.2,32.05v0a4.67,4.67,0,0,0-2.47,4.12v14a1.57,1.57,0,0,1-1.57,1.57H282.36v-38a13,13,0,1,0-9.38,0v38H261.6a1.57,1.57,0,0,1-1.57-1.56v-14a4.66,4.66,0,0,0-2.46-4.12,42.81,42.81,0,0,1,17.29-80.35c.94-.06,1.9-.09,2.84-.09h0A42.69,42.69,0,0,1,320,170.06Z" style="fill:#fff"/><path d="M277.81,89.28a4.4,4.4,0,0,1-4.4-4.4V65.77a4.41,4.41,0,0,1,8.81,0V84.88A4.4,4.4,0,0,1,277.81,89.28Z" style="fill:#fff"/><path d="M244.16,96.73a4.39,4.39,0,0,1-4-2.54L232.1,76.88a4.4,4.4,0,0,1,8-3.72l8.07,17.31a4.4,4.4,0,0,1-4,6.26Z" style="fill:#fff"/><path d="M216.82,117.73a4.39,4.39,0,0,1-2.83-1l-14.64-12.29A4.4,4.4,0,1,1,205,97.67L219.65,110a4.41,4.41,0,0,1-2.83,7.78Z" style="fill:#fff"/><path d="M200.89,148.3a4.46,4.46,0,0,1-1.14-.15l-18.44-5a4.4,4.4,0,1,1,2.27-8.5L202,139.64a4.41,4.41,0,0,1-1.14,8.66Z" style="fill:#fff"/><path d="M180.58,186.05a4.4,4.4,0,0,1-.76-8.74l18.8-3.31a4.4,4.4,0,0,1,1.53,8.67L181.34,186A4.87,4.87,0,0,1,180.58,186.05Z" style="fill:#fff"/><path d="M311.47,96.73a4.4,4.4,0,0,1-4-6.26l8.07-17.31a4.4,4.4,0,0,1,8,3.72l-8.07,17.31A4.4,4.4,0,0,1,311.47,96.73Z" style="fill:#fff"/><path d="M338.81,117.73A4.4,4.4,0,0,1,336,110l14.64-12.28a4.4,4.4,0,0,1,5.66,6.74L341.64,116.7A4.41,4.41,0,0,1,338.81,117.73Z" style="fill:#fff"/><path d="M354.74,148.3a4.41,4.41,0,0,1-1.14-8.66L372,134.7a4.4,4.4,0,1,1,2.28,8.5l-18.44,5A4.52,4.52,0,0,1,354.74,148.3Z" style="fill:#fff"/><path d="M375.05,186.05a5.09,5.09,0,0,1-.77-.06l-18.81-3.32A4.4,4.4,0,0,1,357,174l18.81,3.31a4.4,4.4,0,0,1-.76,8.74Z" style="fill:#fff"/></g></g></g></svg>