<svg xmlns="http://www.w3.org/2000/svg" viewBox="0 0 501.7 367.09"><title>improved</title><g style="isolation:isolate"><g id="1ae5d638-aad4-4d1e-b5ad-59121a9f04e3" data-name="Layer 2"><g id="cc0cbe02-31bb-4d8e-944e-df0cb84e75bc" data-name="Layer 1"><polygon points="150.82 36.83 115.06 36.83 0 151.89 37.64 189.52 106.53 120.62 106.53 367.09 159.76 367.09 159.76 120.6 228.74 189.59 265.79 151.82 150.82 36.83" style="fill:#13e2ce"/><polygon points="272.63 0 262.15 0 227.52 34.63 238.25 45.35 259.87 23.72 259.87 99.89 275.04 99.89 275.04 23.71 296.69 45.37 307.23 34.61 272.63 0" style="fill:#00c4b3"/><g style="mix-blend-mode:multiply"><path d="M344.22,121.5h5.62L371.29,143l-4.71,4.8-13.67-13.67-2-2.71-.82.27.37,3.35v49.88h-6.79V135l.27-3.35-.82-.27-1.9,2.71-13.67,13.67-4.8-4.8Z" style="fill:#13e2ce"/><path d="M350.59,185h-7V135l.27-3.26-.64-.22-1.84,2.64-13.78,13.78-.09-.09L322.59,143l.08-.09,21.5-21.5h5.72l0,0L371.47,143l-4.89,5-.08-.09-13.68-13.67-1.95-2.66-.63.22.35,3.24Zm-6.79-.25h6.54V135l-.37-3.44,1-.33,2,2.79,13.57,13.57,4.54-4.62-21.34-21.34h-5.51L322.94,143l4.62,4.62L341.14,134l1.95-2.77,1,.33L343.8,135Z" style="fill:#13e2ce"/></g><text transform="translate(14.14 251.88)" style="font-size:68.9134292602539px;fill:#090968;font-family:SpaceGrotesk-Bold, Space Grotesk;letter-spacing:-0.06800595308936354em"><tspan style="font-weight:700">V<tspan x="36.66" y="0" style="letter-spacing:-0.03019810086131146em">a</tspan><tspan x="73.17" y="0" style="letter-spacing:-0.018110358001293313em">s</tspan><tspan x="106.93" y="0" style="letter-spacing:-0.04519086984829763em">t</tspan><tspan x="132.76" y="0" style="letter-spacing:-0.03349991104464584em">l</tspan><tspan x="146.85" y="0" style="letter-spacing:-0.01499276898698617em">y </tspan><tspan x="201.16" y="0" style="letter-spacing:-0.03389669510101221em">i</tspan><tspan x="215.22" y="0" style="letter-spacing:-0.029404532748578734em">m</tspan><tspan x="270.12" y="0" style="letter-spacing:-0.02999970883312828em">p</tspan><tspan x="309.81" y="0" style="letter-spacing:-0.034010061974259743em">r</tspan><tspan x="333.24" y="0" style="letter-spacing:-0.04930041900352068em">o</tspan><tspan x="369.26" y="0" style="letter-spacing:-0.048195091989357244em">v</tspan><tspan x="402.6" y="0" style="letter-spacing:-0.024402219466531365em">e</tspan><tspan x="437.99" y="0" style="letter-spacing:-0.015006939846142112em">d</tspan></tspan><tspan style="font-family:SpaceGrotesk-Light, Space Grotesk;letter-spacing:-0.04050031546768097em"><tspan x="0" y="65">u</tspan><tspan x="38.14" y="65" style="letter-spacing:-0.03521458500251477em">s</tspan><tspan x="72.65" y="65" style="letter-spacing:-0.03469026321374494em">e</tspan><tspan x="109.47" y="65" style="letter-spacing:-0.015006939846142112em">r </tspan><tspan x="154.96" y="65" style="letter-spacing:-0.06980565220216813em">e</tspan><tspan x="189.36" y="65" style="letter-spacing:-0.04890363494715432em">x</tspan><tspan x="225.82" y="65" style="letter-spacing:-0.03298976011503195em">p</tspan><tspan x="266.27" y="65" style="letter-spacing:-0.03470443407290088em">e</tspan><tspan x="303.09" y="65" style="letter-spacing:-0.037297701298438186em">r</tspan><tspan x="325.33" y="65" style="letter-spacing:-0.04299438667912669em">i</tspan><tspan x="337.11" y="65" style="letter-spacing:-0.03470443407290088em">e</tspan><tspan x="373.93" y="65" style="letter-spacing:-0.03901237525630711em">n</tspan><tspan x="412.17" y="65" style="letter-spacing:-0.034095087129195394em">c</tspan><tspan x="449.38" y="65" style="letter-spacing:-0.015006939846142112em">e</tspan></tspan></text></g></g></g></svg>