<svg xmlns="http://www.w3.org/2000/svg" viewBox="0 0 620.52 296.87"><title>maximise</title><g style="isolation:isolate"><g id="71f60e22-629a-4e5f-9a03-c007ca3bcdef" data-name="Layer 2"><g id="4e7c9d68-8e13-40e9-8af1-89a48aeb98c8" data-name="Layer 1"><text transform="translate(198.31 139.65)" style="font-size:96.9835433959961px;fill:#090968;font-family:SpaceGrotesk-Bold, Space Grotesk;font-weight:700"><tspan style="letter-spacing:-0.024403101143525632em">M</tspan><tspan x="82.98" y="0" style="letter-spacing:-0.021397396298738176em">a</tspan><tspan x="135.21" y="0" style="letter-spacing:-0.024700147350966938em">x</tspan><tspan x="187.9" y="0" style="letter-spacing:-0.01960001500964417em">i</tspan><tspan x="209.08" y="0" style="letter-spacing:-0.015899524120332978em">m</tspan><tspan x="287.65" y="0" style="letter-spacing:-0.017097778313062317em">i</tspan><tspan x="309.07" y="0" style="letter-spacing:-0.015899524120332978em">s</tspan><tspan x="356.8" y="0">e</tspan></text><path d="M296.87,55.66V0H241.2V13.92H55.66V0H0V55.66H13.92V241.2H0v55.67H55.66V283H241.2v13.92h55.67V241.2H283V55.66ZM37.11,278.31H18.55V259.76H37.11Zm0-241.2H18.55V18.55H37.11Zm218,204.09H241.2v13.92H55.66V241.2H41.75V55.66H55.66V41.75H241.2V55.66h13.92Zm23.19,37.11H259.76V259.76h18.55Zm0-241.2H259.76V18.55h18.55Z" style="fill:#13e2ce;mix-blend-mode:multiply"/><polygon points="213.37 200.25 96.61 83.49 120.6 83.49 120.6 64.94 64.94 64.94 64.94 120.6 83.49 120.6 83.49 96.61 200.25 213.37 176.26 213.37 176.26 231.93 231.93 231.93 231.93 176.26 213.37 176.26 213.37 200.25" style="fill:#00c4b3"/><text transform="translate(299.6 174.1)" style="font-size:30px;fill:#090968;font-family:SpaceGrotesk-Regular, Space Grotesk"><tspan style="letter-spacing:-0.017692057291666667em">t</tspan><tspan x="12.28" y="0" style="letter-spacing:-0.00810546875em">h</tspan><tspan x="29.89" y="0">e </tspan><tspan x="56.07" y="0" style="letter-spacing:-0.026009114583333333em">v</tspan><tspan x="71.31" y="0" style="letter-spacing:-0.009195963541666666em">a</tspan><tspan x="88.23" y="0" style="letter-spacing:-0.010498046875em">l</tspan><tspan x="94.69" y="0" style="letter-spacing:-0.007698567708333334em">u</tspan><tspan x="112.31" y="0">e </tspan><tspan x="138.5" y="0" style="letter-spacing:-0.006380208333333333em">c</tspan><tspan x="155.38" y="0" style="letter-spacing:-0.008203125em">o</tspan><tspan x="172.62" y="0" style="letter-spacing:-0.017708333333333333em">nt</tspan><tspan x="202.22" y="0" style="letter-spacing:-0.011507161458333333em">r</tspan><tspan x="212.98" y="0" style="letter-spacing:-0.011295572916666666em">i</tspan><tspan x="219.42" y="0" style="letter-spacing:-0.00810546875em">b</tspan><tspan x="237.62" y="0" style="letter-spacing:-0.0069010416666666664em">u</tspan><tspan x="255.27" y="0" style="letter-spacing:-0.017692057291666667em">t</tspan><tspan x="267.54" y="0" style="letter-spacing:-0.011490885416666667em">i</tspan><tspan x="273.98" y="0" style="letter-spacing:-0.008203125em">o</tspan><tspan x="291.22" y="0">n</tspan><tspan x="309.07" y="0" style="font-size:38px"> </tspan><tspan style="font-size:44px"><tspan x="0" y="42" style="letter-spacing:-0.023703835227272728em">o</tspan><tspan x="24.61" y="42">f </tspan><tspan x="56.55" y="42" style="letter-spacing:-0.037409002130681816em">y</tspan><tspan x="79.28" y="42" style="letter-spacing:-0.01290616122159091em">o</tspan><tspan x="104.37" y="42" style="letter-spacing:-0.01529208096590909em">u</tspan><tspan x="129.87" y="42">r </tspan><tspan x="159.88" y="42" style="letter-spacing:-0.006902521306818182em">I</tspan><tspan x="169.87" y="42" style="letter-spacing:-0.000011097301136363637em">T </tspan><tspan x="209.56" y="42" style="letter-spacing:-0.00899991122159091em">s</tspan><tspan x="232.53" y="42" style="letter-spacing:-0.027909712357954544em">t</tspan><tspan x="250.09" y="42" style="letter-spacing:-0.018099698153409092em">a</tspan><tspan x="274.5" y="42">ff</tspan></tspan></text></g></g></g></svg>