<svg xmlns="http://www.w3.org/2000/svg" viewBox="0 0 92 67"><title>Hat</title><g id="468c032d-a4c3-4e11-ac81-b1891c6678a0" data-name="Layer 2"><g id="6762ee57-cc77-4392-810d-8bbe74a2fce4" data-name="Layer 1"><path id="137eac73-e5cb-47e6-bf40-bde00c2e038c" data-name="&lt;Compound Path&gt;" d="M89.63,19.28,47.64.36a4,4,0,0,0-3.3,0l-42,18.92A4,4,0,0,0,0,22.8a4.14,4.14,0,0,0,2.36,3.63L6,28.18v14a2.5,2.5,0,0,0,5,0V30.71l6,3.21v17a3.42,3.42,0,0,0,.55,1.89A34.38,34.38,0,0,0,45.44,67a33.49,33.49,0,0,0,28-14.24A3.51,3.51,0,0,0,74,50.94V34.49l15.85-8.06A3.93,3.93,0,0,0,92,22.8,4,4,0,0,0,89.63,19.28ZM67,49.85a27.12,27.12,0,0,1-21.5,10.2A27.57,27.57,0,0,1,24,49.81V37.47l20.2,10.25a4,4,0,0,0,1.81.44,4.16,4.16,0,0,0,1.85-.44L67,38ZM46,39.73,13.21,23.11,46,8.33,78.77,23.11ZM11,48a4,4,0,0,1,0,5.62,4,4,0,0,1-5.66,0A4,4,0,0,1,5.3,48,4,4,0,0,1,11,48Z" style="fill:#13e2cf"/></g></g></svg>