<svg xmlns="http://www.w3.org/2000/svg" viewBox="0 0 86 78"><title>Heart</title><g id="a4cfdeec-4a59-4404-b5e6-e0b5e824fdab" data-name="Layer 2"><g id="9ba0e517-1cde-4778-b1a9-bf8db7138da3" data-name="Layer 1"><path id="721b5e64-c039-4c41-a91f-21a73cd357de" data-name="&lt;Compound Path&gt;" d="M83.75,15c-4.08-9.11-12.7-15-22-15S46.54,4.07,43,8.48C39.46,4.07,33.46,0,24.21,0S6.33,5.88,2.25,15C-2,24.47-.16,35,7.15,43.23,24.68,62.9,40.18,76.84,40.33,77a4,4,0,0,0,5.34,0c.16-.14,15.65-14.08,33.18-33.75C86.16,35,88,24.47,83.75,15ZM72.87,37.91C59.91,52.45,48.11,63.79,43,68.56c-5.11-4.77-16.9-16.1-29.87-30.65C7.89,32,6.59,24.87,9.55,18.26,12.3,12.12,18.19,8,24.21,8c11.93,0,14.64,8.93,14.91,10A4,4,0,0,0,43,21h0a4,4,0,0,0,3.88-3c.27-1,2.95-10,14.91-10,6,0,11.91,4.12,14.66,10.25C79.41,24.88,78.11,32,72.87,37.91Zm-1-11.58a3.51,3.51,0,0,1-3.26,3.72H68.4a3.51,3.51,0,0,1-3.49-3.27c-.37-5.67-4.08-6.6-4.82-6.73a3.48,3.48,0,0,1-3-3.94,3.52,3.52,0,0,1,4-3C64.56,13.61,71.28,17,71.9,26.33Zm-4.83,5.81A4,4,0,0,1,64.24,39a4,4,0,0,1-4-4,4,4,0,0,1,6.83-2.83Z" style="fill:#13e2cf"/></g></g></svg>