<svg xmlns="http://www.w3.org/2000/svg" viewBox="0 0 88.78 91"><title>180-org</title><g id="5ddcbe05-7ff6-4ca9-a27e-5fcc4540658d" data-name="Layer 2"><g id="5f9722a0-299e-4f43-8d65-19b055d99493" data-name="Layer 1"><path id="64d1a129-23fe-4e85-8f91-1fb295389e94" data-name="&lt;Compound Path&gt;" d="M81.42,70.11V48.54c0-6.09-4.33-11-10.44-11H48.42V20.89a10.64,10.64,0,1,0-8,0c0,.05,0,.09,0,.13V37.5H17.87c-6.11,0-10.45,5-10.45,11V70.11A10.7,10.7,0,0,0,.5,79.91,10.49,10.49,0,0,0,11,90.5,10.81,10.81,0,0,0,21.82,79.91c0-4.42-3.4-8.22-6.4-9.8V48.54c0-1.68.78-3,2.45-3H40.42V70.11a10.43,10.43,0,0,0-6.62,9.8,10.63,10.63,0,0,0,21.25,0,10.43,10.43,0,0,0-6.63-9.8V45.5H71c1.67,0,2.44,1.36,2.44,3V70.11c-3,1.58-6.31,5.38-6.31,9.8A10.75,10.75,0,0,0,77.89,90.5,10.42,10.42,0,0,0,88.28,79.91,10.64,10.64,0,0,0,81.42,70.11ZM44.43,6.5a4.59,4.59,0,1,1-4.6,4.59A4.6,4.6,0,0,1,44.43,6.5Zm-33.61,78a4.59,4.59,0,1,1,4.6-4.59A4.6,4.6,0,0,1,10.82,84.5Zm33.61,0A4.59,4.59,0,1,1,49,79.91,4.6,4.6,0,0,1,44.43,84.5Zm33.6,0a4.59,4.59,0,1,1,4.6-4.59A4.6,4.6,0,0,1,78,84.5Z" style="fill:#13e2cf;stroke:#13e2cf;stroke-miterlimit:10"/></g></g></svg>