<svg xmlns="http://www.w3.org/2000/svg" viewBox="0 0 91 92"><title>Thumbs</title><g id="85129069-b5f1-4a5d-b571-a386f6604937" data-name="Layer 2"><g id="129570d7-72e0-4a75-ba97-79827379fabf" data-name="Layer 1"><path id="914a395a-9ecc-4902-888f-eb01e629a9b6" data-name="&lt;Compound Path&gt;" d="M59.26,92c-12.41,0-31.9-4.11-36.73-7.53a4,4,0,0,1-1.68-3.26V42.11A4,4,0,0,1,22.37,39,123.15,123.15,0,0,1,37,29.21c9.1-5,15.37-12,16.87-16.4C55.73,7.4,58.26,0,66.46,0a9.39,9.39,0,0,1,8.77,6c3.4,7.76-.18,18.55-6.16,27.08,4,.94,9,2.17,12,3.09,5.46,1.71,9.15,5.65,9.86,10.55s-1.84,10.08-7.09,14C79.93,71.22,73.2,87.85,68.3,90.57,66.5,91.58,63.24,92,59.26,92ZM28.89,78.84c7.63,3.2,31,6.54,35.42,4.77,2.34-2.12,8.23-15.45,12.34-26.77a4,4,0,0,1,1.54-2c3.33-2.22,5-4.76,4.73-7-.26-1.78-1.87-3.3-4.31-4.07-5-1.58-17.44-4.31-17.56-4.34A4,4,0,0,1,59,32.86c9-9.68,10.63-19.65,8.88-23.63C67.32,8,66.76,8,66.46,8c-2,0-2.91,1.38-5,7.38-2.39,7-10.67,15.39-20.6,20.84a110.4,110.4,0,0,0-12,7.87ZM13.07,81.55V41.64A6.54,6.54,0,0,0,0,41.64V81.55a6.54,6.54,0,0,0,13.07,0Z" style="fill:#13e2cf"/></g></g></svg>