<svg xmlns="http://www.w3.org/2000/svg" viewBox="0 0 866.54 976.03"><title>bg--hex-04</title><g id="49c53018-8aa2-41a8-918e-96feda2303af" data-name="Layer 2"><g id="919d19a5-54ff-48dd-b252-9d2f07bdd36c" data-name="Layer 1"><polygon points="245.17 591.27 245.17 384.76 433.27 276.15 621.37 384.76 621.37 591.27 433.27 699.87 245.17 591.27" style="fill:none;stroke:#3a3a86;stroke-miterlimit:10;stroke-width:7px"/><polygon points="433.27 607.28 540.2 545.54 540.2 430.49 433.27 368.75 326.34 430.49 326.34 545.54 433.27 607.28" style="fill:none;stroke:#3a3a86;stroke-miterlimit:10;stroke-width:7px"/><polygon points="376.11 517.35 376.11 458.68 433.27 425.67 490.43 458.68 490.43 517.35 433.27 550.35 376.11 517.35" style="fill:none;stroke:#3a3a86;stroke-miterlimit:10;stroke-width:7px"/><polygon points="138.03 650.07 138.03 325.95 433.27 155.5 728.5 325.95 728.5 650.07 433.27 820.53 138.03 650.07" style="fill:none;stroke:#3a3a86;stroke-miterlimit:10;stroke-width:4px"/><polygon points="1 725.29 1 250.72 433.27 1.16 865.54 250.72 865.54 725.29 433.27 974.87 1 725.29" style="fill:none;stroke:#3a3a86;stroke-miterlimit:10;stroke-width:2px"/></g></g></svg>