<svg xmlns="http://www.w3.org/2000/svg" viewBox="0 0 93 55"><title>Email</title><g id="4291e44a-4df8-4342-949a-4a666458c07a" data-name="Layer 2"><g id="86957998-0195-4253-a3b0-06238e9ab624" data-name="Layer 1"><path id="b8743c62-c07b-4fe1-bf4b-863eea92bd24" data-name="&lt;Compound Path&gt;" d="M92.49,4.41a3.27,3.27,0,0,0,0-.44c0-.12,0-.23,0-.34s-.08-.25-.12-.38-.08-.25-.13-.37-.11-.2-.16-.3-.15-.27-.23-.39l-.05-.07a1.71,1.71,0,0,0-.18-.2,2.89,2.89,0,0,0-.29-.32,3.61,3.61,0,0,0-.3-.25l-.31-.22a3.9,3.9,0,0,0-.35-.19,2.11,2.11,0,0,0-.34-.16c-.12-.05-.25-.08-.38-.12L89.2.57a3.42,3.42,0,0,0-.45,0,1.9,1.9,0,0,0-.25,0H4.5a2.3,2.3,0,0,0-.26,0,3.42,3.42,0,0,0-.44,0L3.44.66c-.13,0-.26.07-.38.12a2.72,2.72,0,0,0-.35.16l-.34.19-.31.22a3.61,3.61,0,0,0-.3.25,2.89,2.89,0,0,0-.29.32,1.71,1.71,0,0,0-.18.2l-.05.07c-.08.12-.15.25-.23.38s-.11.2-.16.31-.09.24-.13.37S.63,3.5.6,3.63s0,.22,0,.34a3.27,3.27,0,0,0,0,.44s0,.06,0,.09v46a4,4,0,0,0,4,4h84a4,4,0,0,0,4-4V4.5S92.49,4.44,92.49,4.41ZM76.4,8.5,46.5,30.71,16.6,8.5ZM8.5,46.5v-34L44.11,38.9a4.05,4.05,0,0,0,2.39.79,4,4,0,0,0,2.38-.79L84.5,12.45V46.5Z" style="fill:#fff;stroke:#fff;stroke-miterlimit:10"/></g></g></svg>