<svg xmlns="http://www.w3.org/2000/svg" viewBox="0 0 93 81"><title>Message</title><g id="de2f47cb-2110-4896-acdd-bc2a347bbcb6" data-name="Layer 2"><g id="8d16cc85-e4da-429a-813b-cd28760da652" data-name="Layer 1"><path id="1562b6c3-5986-48d5-b03e-8f9c66d1b02b" data-name="&lt;Compound Path&gt;" d="M88.5.5H4.5a4,4,0,0,0-4,4V55.57a3.94,3.94,0,0,0,4,3.93h47v17a4.22,4.22,0,0,0,2.84,3.76,4.79,4.79,0,0,0,1.49.24,4.15,4.15,0,0,0,3.11-1.45L75.53,59.5h13a3.94,3.94,0,0,0,4-3.93V4.5A4,4,0,0,0,88.5.5Zm-4,51H73.68A4.48,4.48,0,0,0,70.41,53L59.5,65.59v-10c0-2.21-1.35-4.07-3.56-4.07H8.5V8.5h76Zm-65.36-29a4,4,0,0,1,4-4h29a4,4,0,0,1,0,8h-29A4,4,0,0,1,19.14,22.5ZM63,25.56a4,4,0,1,1,2.83,1.18A4,4,0,0,1,63,25.56Z" style="fill:#fff;stroke:#fff;stroke-miterlimit:10"/></g></g></svg>