<svg xmlns="http://www.w3.org/2000/svg" viewBox="0 0 91 91"><title>Phone</title><g id="9846899f-da04-4563-9649-7cafb74aec70" data-name="Layer 2"><g id="5a323580-c508-4666-9ea4-b299323c834f" data-name="Layer 1"><path id="5e3d224a-df7b-4103-b9fa-dc37c0449691" data-name="&lt;Compound Path&gt;" d="M88,12l-.21-.19L77,2.44A7.36,7.36,0,0,0,71.29.53a8.47,8.47,0,0,0-5.18,2.38,3.17,3.17,0,0,0-.3.34L55.25,16.58a7.58,7.58,0,0,0,.19,10.5,3.25,3.25,0,0,0,.61.5l5.4,3.6c-.43,1.87-3.25,7.3-13.1,17.16S33.06,61,31.19,61.44L27.6,56.05a3.83,3.83,0,0,0-.51-.62,7.58,7.58,0,0,0-10.5-.19L3.27,65.8c-.12.1-.24.2-.35.31-3,3-3.24,8-.46,10.92l9.35,10.75L12,88c1.85,1.84,4.62,2.51,7.66,2.51,5.48,0,11.82-2.17,15.12-3.47a93.75,93.75,0,0,0,31.3-21,94.51,94.51,0,0,0,21-31.3C89.05,29.64,93.17,17.17,88,12ZM60.42,60.42C41.91,78.93,21.15,84,17.61,82.26L8.55,71.85v0l13-10.34,3.51,5.28.22.3a6.69,6.69,0,0,0,4.93,2.43c1.94.11,7.83.42,23.74-15.5,3.94-3.93,15.91-15.91,15.5-23.74a6.7,6.7,0,0,0-2.44-4.93l-.3-.22-5.28-3.51,10.34-13h0L82.26,17.6C84,21.14,78.94,41.9,60.42,60.42Z" style="fill:#fff;stroke:#fff;stroke-miterlimit:10"/></g></g></svg>