<svg xmlns="http://www.w3.org/2000/svg" viewBox="0 0 114.35 101.81"><title>Map</title><g id="75721627-a067-45cb-b333-e2e1cc24bbbe" data-name="Layer 2"><g id="aa7c801f-a93a-4ed1-a654-9133011e4ca3" data-name="Layer 1"><path d="M32.78,50.07l-1.85,4.78v0A2.91,2.91,0,0,0,36.37,57h0l1.83-4.79L43,54a2.91,2.91,0,0,0,2.08-5.43l-4.8-1.86,1.8-4.79a2.9,2.9,0,0,0-5.39-2.11h0L34.85,44.6l-4.79-1.83A2.92,2.92,0,0,0,28,48.23h0Z" style="fill:#13e2cf;stroke:#13e2cf;stroke-miterlimit:10"/><path d="M113.52,66.8l-5.07-15.9,5-15.88h0a7,7,0,0,0-4.58-8.85l-9.29-3L94,5.42A7,7,0,0,0,85.13.85L57.18,9.72,29.22.83a7,7,0,0,0-8.85,4.58L14.71,23.22l-9.3,2.94h0A7.06,7.06,0,0,0,.83,35L5.91,50.9l-5,15.89a7,7,0,0,0,4.58,8.85l9.29,2.94,5.66,17.8A7,7,0,0,0,29.25,101l27.93-8.87L85.13,101A7.05,7.05,0,0,0,94,96.39l5.66-17.8,9.29-2.94h0A7.06,7.06,0,0,0,113.52,66.8Zm-6.38-35.11a1.26,1.26,0,0,1,.81,1.56l-2.56,8L101.8,30ZM25.91,7.18a1.24,1.24,0,0,1,1.56-.8l20.12,6.39-26.1,8.29ZM7.21,70.11a1.24,1.24,0,0,1-.8-1.55L9,60.5l3.6,11.32ZM88.46,94.63h0a1.24,1.24,0,0,1-1.56.8L66.77,89l26.1-8.3Zm18.68-24.52h0L27.47,95.43a1.24,1.24,0,0,1-1.56-.8L6.4,33.25a1.26,1.26,0,0,1,.81-1.56L86.9,6.36h0a1.19,1.19,0,0,1,.37-.06,1.22,1.22,0,0,1,.57.13,1.26,1.26,0,0,1,.62.74L108,68.56A1.24,1.24,0,0,1,107.14,70.11Z" style="fill:#13e2cf;stroke:#13e2cf;stroke-miterlimit:10"/><path d="M72.09,38.75a2.91,2.91,0,1,0,3.58-4.58l-11-8.59a2.92,2.92,0,0,0-4.08.5L52,37.1a2.9,2.9,0,1,0,4.57,3.58l4.27-5.46A31.6,31.6,0,0,1,33.34,69.64a2.91,2.91,0,0,0,.35,5.81h.37a37.4,37.4,0,0,0,32.53-41Z" style="fill:#13e2cf;stroke:#13e2cf;stroke-miterlimit:10"/><path d="M88.55,58.68l-4.74-1.83,1.84-4.79A2.92,2.92,0,0,0,80.21,50h0l-1.83,4.79-4.79-1.84a2.91,2.91,0,0,0-2.09,5.43l4.79,1.86L74.46,65a2.9,2.9,0,1,0,5.42,2.08l1.85-4.78,4.79,1.83a2.91,2.91,0,0,0,3.75-1.67h0a3,3,0,0,0-.07-2.24A2.92,2.92,0,0,0,88.55,58.68Z" style="fill:#13e2cf;stroke:#13e2cf;stroke-miterlimit:10"/></g></g></svg>