<svg xmlns="http://www.w3.org/2000/svg" viewBox="0 0 119.71 99.53"><title>Productivity</title><g id="60459256-76d3-41e5-9402-3b83326678c9" data-name="Layer 2"><g id="6f013437-ee5a-4efa-ad0f-9b1c5c07ab79" data-name="Layer 1"><path d="M105.81.5H13.9A13.41,13.41,0,0,0,.5,13.9V85.62A13.42,13.42,0,0,0,13.9,99h91.91a13.42,13.42,0,0,0,13.4-13.41V13.9A13.41,13.41,0,0,0,105.81.5ZM13.9,6.63h91.91a7.28,7.28,0,0,1,7.27,7.27v9.7H6.63V13.9A7.28,7.28,0,0,1,13.9,6.63ZM105.81,92.9H13.9a7.29,7.29,0,0,1-7.27-7.28V29.73H113.08V85.62A7.29,7.29,0,0,1,105.81,92.9Z" style="fill:#13e2cf;stroke:#13e2cf;stroke-miterlimit:10"/><path d="M58.59,38.89A19.15,19.15,0,1,0,77.74,58,19.15,19.15,0,0,0,58.59,38.89Zm0,32.83A13.68,13.68,0,1,1,72.27,58,13.69,13.69,0,0,1,58.59,71.72Z" style="fill:#13e2cf;stroke:#13e2cf;stroke-miterlimit:10"/><polygon points="55 59.65 52.67 57.32 48.8 61.19 55.17 67.56 67.1 54.56 63.06 50.86 55 59.65" style="fill:#13e2cf;stroke:#13e2cf;stroke-miterlimit:10"/><path d="M23.3,17h3.58a1.8,1.8,0,1,0,0-3.59H23.3a1.8,1.8,0,0,0,0,3.59Z" style="fill:#13e2cf;stroke:#13e2cf;stroke-miterlimit:10"/><path d="M34.05,17a1.8,1.8,0,0,0,3.59,0h0a1.8,1.8,0,0,0,0-3.59,1.8,1.8,0,1,0-3.59,0h0a1.8,1.8,0,0,0,0,3.59Z" style="fill:#13e2cf;stroke:#13e2cf;stroke-miterlimit:10"/><path d="M16.13,17h0a1.91,1.91,0,0,0,1.28-.52,1.81,1.81,0,0,0-1.29-3.08,1.81,1.81,0,0,0-1.78,1.81v0A1.79,1.79,0,0,0,16.13,17Z" style="fill:#13e2cf;stroke:#13e2cf;stroke-miterlimit:10"/></g></g></svg>