<svg xmlns="http://www.w3.org/2000/svg" viewBox="0 0 133.05 132.97"><title>Target</title><g id="c7e3a645-4d29-40fe-96f5-5027fc0ed75f" data-name="Layer 2"><g id="76e3fd65-97e1-4db8-80a3-f09b66a3199d" data-name="Layer 1"><path d="M64.13,16.25a3.36,3.36,0,0,0,2.35-1,3.31,3.31,0,0,0,1-2.36V8.17a3.36,3.36,0,0,0-1.07-2.51,3.3,3.3,0,0,0-2.59-.84h0a3.29,3.29,0,0,0-2.94,3.35v4.74a3.3,3.3,0,0,0,3.3,3.34Z" style="fill:#13e2cf;stroke:#13e2cf;stroke-miterlimit:10"/><path d="M8.69,65.35h-5a3.25,3.25,0,0,0-2.29,1.08A3.29,3.29,0,0,0,4,71.94H8.69A3.27,3.27,0,0,0,11.06,71a3.36,3.36,0,0,0,1-2.35,3.3,3.3,0,0,0-3.35-3.3Z" style="fill:#13e2cf;stroke:#13e2cf;stroke-miterlimit:10"/><path d="M132.5,13.49A3.26,3.26,0,0,0,130.58,11l-5.66-2.47-2.06-5.77A3.3,3.3,0,0,0,119.2.54h0a3.25,3.25,0,0,0-1.65.83l-8.86,8a3.29,3.29,0,0,0-1,1.86l-1.85,10.45L93.7,33.72a46.19,46.19,0,0,0-53.32-5.56,46.47,46.47,0,0,0,45.69,80.93,46.68,46.68,0,0,0,17.41-63.42,3.28,3.28,0,0,0-4.37-1A3.32,3.32,0,0,0,97.77,49a39.93,39.93,0,0,1-15,54.35,39.42,39.42,0,0,1-54-14.94A40.07,40.07,0,0,1,43.57,33.87,39.54,39.54,0,0,1,89,38.36l-5.36,5.36a32.07,32.07,0,0,0-32.66-5A32.33,32.33,0,1,0,93,56.44a3.36,3.36,0,0,0-1.74-2.09A3.31,3.31,0,0,0,87,59a25.66,25.66,0,1,1-8-10.62l-5.41,5.41a18.21,18.21,0,1,0,7.68,14.89,3.29,3.29,0,1,0-6.54,0A11.38,11.38,0,1,1,68.76,58.5L61,66.18a3.24,3.24,0,0,0-1,2.33,3.32,3.32,0,0,0,1,2.37,3.3,3.3,0,0,0,4.71,0l44.61-44.4,10.46-1.19a3.32,3.32,0,0,0,1.86-.82l8.86-8A3.29,3.29,0,0,0,132.5,13.49Zm-13.56,5.34-6.08.67,1.08-6.08,4.33-3.81.88,2.47A3.29,3.29,0,0,0,121,14l2.27,1Z" style="fill:#13e2cf;stroke:#13e2cf;stroke-miterlimit:10"/><path d="M124.35,65.35h-5a3.32,3.32,0,0,0-3.14,3.45,3.28,3.28,0,0,0,1.07,2.29,3.32,3.32,0,0,0,2.38.85h4.74a3.26,3.26,0,0,0,2.36-.94,3.32,3.32,0,0,0,1-2.35,3.3,3.3,0,0,0-3.34-3.3Z" style="fill:#13e2cf;stroke:#13e2cf;stroke-miterlimit:10"/><path d="M64.13,121a3.26,3.26,0,0,0-2.35,1,3.33,3.33,0,0,0-1,2.37v4.79a3.3,3.3,0,0,0,5.65,2.36,3.26,3.26,0,0,0,.94-2.36v-4.79A3.28,3.28,0,0,0,64.13,121Z" style="fill:#13e2cf;stroke:#13e2cf;stroke-miterlimit:10"/></g></g></svg>