<svg id="c77b7e2b-d24d-4f09-a743-b2b53a624a5d" data-name="Layer 1" xmlns="http://www.w3.org/2000/svg" viewBox="0 0 93.1 90">
  <title>Artboard 3</title>
  <path id="aa5d05f7-a028-427e-9435-a0a1aa151357" data-name="&lt;Compound Path&gt;" d="M84.5,45a4,4,0,0,1-4,4H22.2L40.3,67.2a3.9,3.9,0,0,1,0,5.6A3.9,3.9,0,0,1,37.5,74a4,4,0,0,1-2.9-1.2L9.7,47.8a3.9,3.9,0,0,1,0-5.6l24.9-25a4,4,0,0,1,5.7,0,3.9,3.9,0,0,1,0,5.6L22.2,41H80.5A4,4,0,0,1,84.5,45Z" fill="#13e2cf" stroke="#13e2cf" stroke-miterlimit="10"/>
</svg>
