<svg xmlns="http://www.w3.org/2000/svg" viewBox="0 0 86 90"><title>Download</title><g id="9601c2cd-1d7d-4aea-a557-b7080eb4c3db" data-name="Layer 2"><g id="e21a9c42-a188-432c-952b-fdf016dd5d21" data-name="Layer 1"><path id="3ee80ae8-0b09-4611-95c2-9e2d10e811d3" data-name="&lt;Compound Path&gt;" d="M86,57.77V85a5,5,0,0,1-5,5H5a5,5,0,0,1-5-5V57.77a5,5,0,0,1,10,0V80H76V57.77a5,5,0,0,1,10,0ZM39.43,64a5,5,0,0,0,7.14,0L66.52,43.68a5,5,0,0,0-7.14-7L48,48.29V5A5,5,0,0,0,38,5V48.29L26.63,36.68a5,5,0,0,0-7.15,7Z" style="fill:#b1b1b1"/></g></g></svg>