<svg xmlns="http://www.w3.org/2000/svg" viewBox="0 0 304.11 116.96"><title>Logo</title><g id="e6a9a65f-99b2-43a0-98f4-e9774a44c17d" data-name="Layer 2"><g id="3b39421f-74a3-471f-ac4e-ba97ee36cdb0" data-name="Layer 1"><path d="M136.18,86.7V30.25h9.07V86.7Zm20.7-30,26,30H171.68l-26.17-30L169.2,30.25h11.12Z" style="fill:#13e2ce"/><path d="M221.87,30.25v8.12H204.43V86.7h-9.07V38.37H177.88l7.2-8.12Z" style="fill:#13e2ce"/><path d="M261.13,39.4l-6.33,4.88c-3-4.54-7-6.85-11.89-6.85s-8.55,2.4-8.55,6.85c0,3.85,2.14,5.3,7.87,8l6.33,2.91c9.15,4.19,13.51,8.64,13.51,16.08a14.81,14.81,0,0,1-5.3,11.8,20.59,20.59,0,0,1-13.6,4.53,23.94,23.94,0,0,1-21.3-12.23l6.41-4.87c4.19,6,9.07,9,14.8,9s9.75-3.08,9.75-7.87c0-4-2.39-5.73-8.29-8.47l-6.25-2.91c-8.3-3.76-13.17-8.38-13.17-15.65a13.8,13.8,0,0,1,5.13-11.12,19.16,19.16,0,0,1,12.66-4.19A20.75,20.75,0,0,1,261.13,39.4Z" style="fill:#13e2ce"/><path d="M277.92,30.25V78.58h25.83V86.7h-34.9V30.25Z" style="fill:#13e2ce"/><polygon points="52.43 101.19 13.65 78.8 13.65 38.16 30.58 28.38 44.12 20.57 44.12 4.8 0 30.27 0 86.69 52.43 116.96 74.64 104.14 63.3 94.92 52.43 101.19" style="fill:#13e2ce"/><polyline points="52.43 0 52.43 15.77 91.21 38.16 91.21 70.83 104.66 70.83 91.21 78.73 91.21 78.8 83.55 83.23 50.64 56.27 74.61 36.06 62.08 28.82 44.12 44.08 44.12 32.63 44.12 20.58 44.1 20.6 30.58 38.86 30.58 80.48 44.12 88.59 44.12 68.43 68.55 88.45 68.55 88.45 71.01 90.47 71.17 90.59 79.79 97.6 82.35 99.69 104.87 86.69 104.87 30.27 52.43 0" style="fill:#13e2ce"/><path d="M137.56,96.53v8.33H136V96.53Z" style="fill:#090968"/><path d="M145,96.53V98h-2.52v6.9H140.9V98h-2.52V96.53Z" style="fill:#090968"/><path d="M150,99V97.13h1.5V99h1.62v1.26h-1.62v3c0,.24.12.36.33.36h.95v1.26h-1.61a1.12,1.12,0,0,1-1.17-1.14v-3.5h-1.5V99Z" style="fill:#090968"/><path d="M155.45,96.53v3.38h.14a1.84,1.84,0,0,1,1.87-1,2.27,2.27,0,0,1,2.29,2.48v3.52h-1.5v-3.38a1.2,1.2,0,0,0-1.33-1.31c-1,0-1.47.6-1.47,1.64v3H154V96.53Z" style="fill:#090968"/><path d="M163.72,98.79a2.4,2.4,0,0,1,2.68,2.35v3.72h-1.48V104h-.16a1.81,1.81,0,0,1-1.86,1c-1.33,0-2.21-.71-2.21-1.84,0-.94.82-1.59,1.95-1.71l2.26-.25V101c0-.55-.41-1-1.24-1a1.7,1.7,0,0,0-1.62,1.14l-1.21-.74A3.39,3.39,0,0,1,163.72,98.79Zm-.45,5a1.44,1.44,0,0,0,1.63-1.43v-.14l-1.81.21c-.56.07-.83.32-.83.67S162.6,103.79,163.27,103.79Z" style="fill:#090968"/><path d="M168.54,99V97.13H170V99h1.62v1.26H170v3c0,.24.12.36.33.36h1v1.26h-1.62a1.12,1.12,0,0,1-1.17-1.14v-3.5h-1.49V99Z" style="fill:#090968"/><path d="M181.86,104.86h-1.48V104h-.16a2.05,2.05,0,0,1-1.88,1,3.15,3.15,0,0,1,0-6.23,2,2,0,0,1,1.88,1h.14V96.53h1.5Zm-4.74-3a1.63,1.63,0,1,0,1.62-1.79A1.61,1.61,0,0,0,177.12,101.91Z" style="fill:#090968"/><path d="M184.7,99.82h.16a1.34,1.34,0,0,1,1.48-.88h.57v1.3H186a1.17,1.17,0,0,0-1.31,1.24v3.38h-1.5V99h1.48Z" style="fill:#090968"/><path d="M188.42,96.23a1,1,0,1,1-1.06,1A1,1,0,0,1,188.42,96.23Zm.75,8.63h-1.5V99h1.5Z" style="fill:#090968"/><path d="M191.51,99l1.45,4.59h.14L194.55,99h1.62l-2,5.9h-2.22l-2-5.9Z" style="fill:#090968"/><path d="M199.33,98.79a2.78,2.78,0,0,1,2.87,3v.56h-4.29a1.43,1.43,0,0,0,1.47,1.41,1.53,1.53,0,0,0,1.47-.88l1.23.71A2.94,2.94,0,0,1,199.4,105a3,3,0,0,1-3-3.16A2.91,2.91,0,0,1,199.33,98.79Zm1.35,2.54a1.29,1.29,0,0,0-1.36-1.25,1.31,1.31,0,0,0-1.4,1.25Z" style="fill:#090968"/><path d="M205.35,98.79a4.07,4.07,0,0,1,3,1.35l-1,.89a2.52,2.52,0,0,0-1.95-1c-.6,0-.87.23-.87.55s.29.49.85.59l.72.12c1.28.21,2.29.65,2.29,1.82s-1,1.93-2.49,1.93a3.75,3.75,0,0,1-3.24-1.71l1.18-.72a2.21,2.21,0,0,0,2,1.22c.69,0,1.07-.27,1.07-.63s-.31-.52-.9-.62l-.72-.12c-1.37-.22-2.24-.73-2.24-1.83S204,98.79,205.35,98.79Z" style="fill:#090968"/><path d="M214.24,96.53v3.26h.15a2,2,0,0,1,1.88-1,3.15,3.15,0,0,1,0,6.23,2,2,0,0,1-1.88-1h-.17v.83h-1.47V96.53Zm0,5.38a1.63,1.63,0,1,0,1.62-1.79A1.61,1.61,0,0,0,214.24,101.91Z" style="fill:#090968"/><path d="M222.64,98.79a2.77,2.77,0,0,1,2.86,3v.56h-4.29a1.44,1.44,0,0,0,1.47,1.41,1.54,1.54,0,0,0,1.48-.88l1.22.71a2.91,2.91,0,0,1-2.67,1.45,3,3,0,0,1-3-3.16A2.9,2.9,0,0,1,222.64,98.79Zm1.34,2.54a1.28,1.28,0,0,0-1.36-1.25,1.31,1.31,0,0,0-1.4,1.25Z" style="fill:#090968"/><path d="M227.4,99V97.13h1.5V99h1.61v1.26H228.9v3c0,.24.12.36.33.36h1v1.26h-1.62a1.12,1.12,0,0,1-1.16-1.14v-3.5h-1.5V99Z" style="fill:#090968"/><path d="M231.87,99V97.13h1.5V99H235v1.26h-1.61v3q0,.36.33.36h1v1.26H233a1.12,1.12,0,0,1-1.16-1.14v-3.5h-1.5V99Z" style="fill:#090968"/><path d="M238.48,98.79a2.78,2.78,0,0,1,2.87,3v.56h-4.3a1.44,1.44,0,0,0,1.48,1.41,1.53,1.53,0,0,0,1.47-.88l1.23.71a2.94,2.94,0,0,1-2.68,1.45,3,3,0,0,1-3-3.16A2.91,2.91,0,0,1,238.48,98.79Zm1.34,2.54a1.28,1.28,0,0,0-1.35-1.25,1.31,1.31,0,0,0-1.4,1.25Z" style="fill:#090968"/><path d="M243.85,99.82H244c.22-.66.72-.88,1.47-.88h.57v1.3h-.88a1.17,1.17,0,0,0-1.3,1.24v3.38h-1.5V99h1.47Z" style="fill:#090968"/><path d="M252.89,98.79a3.12,3.12,0,1,1-3.1,3.12A3,3,0,0,1,252.89,98.79Zm0,4.9a1.8,1.8,0,1,0-1.6-1.78A1.6,1.6,0,0,0,252.89,103.69Z" style="fill:#090968"/><path d="M261.26,104.86v-1h-.16a1.86,1.86,0,0,1-1.87,1,2.26,2.26,0,0,1-2.29-2.47V99h1.5v3.38a1.2,1.2,0,0,0,1.33,1.31c1,0,1.47-.6,1.47-1.65V99h1.5v5.9Z" style="fill:#090968"/><path d="M265,99V97.13h1.5V99h1.62v1.26h-1.62v3c0,.24.12.36.33.36h.95v1.26h-1.61a1.12,1.12,0,0,1-1.17-1.14v-3.5h-1.5V99Z" style="fill:#090968"/><path d="M271.68,98.79a2.83,2.83,0,0,1,3,2.26l-1.48.38a1.42,1.42,0,0,0-1.47-1.31,1.64,1.64,0,0,0-1.6,1.79,1.6,1.6,0,0,0,1.6,1.78,1.39,1.39,0,0,0,1.47-1.29l1.48.37a2.8,2.8,0,0,1-3,2.25,3.12,3.12,0,0,1,0-6.23Z" style="fill:#090968"/><path d="M278.38,98.79a3.12,3.12,0,1,1-3.09,3.12A3,3,0,0,1,278.38,98.79Zm0,4.9a1.8,1.8,0,1,0-1.59-1.78A1.6,1.6,0,0,0,278.38,103.69Z" style="fill:#090968"/><path d="M284,99v.88h.17a1.57,1.57,0,0,1,1.55-1,1.63,1.63,0,0,1,1.57,1h.17a1.7,1.7,0,0,1,1.68-1,1.94,1.94,0,0,1,1.95,2v4h-1.5V101a.85.85,0,0,0-1-.86,1,1,0,0,0-1.07,1.1v3.59H286V101a.85.85,0,0,0-1-.86,1,1,0,0,0-1.07,1.1v3.59h-1.49V99Z" style="fill:#090968"/><path d="M295,98.79a2.77,2.77,0,0,1,2.86,3v.56h-4.29a1.44,1.44,0,0,0,1.48,1.41,1.53,1.53,0,0,0,1.47-.88l1.23.71a2.94,2.94,0,0,1-2.68,1.45,3,3,0,0,1-3-3.16A2.9,2.9,0,0,1,295,98.79Zm1.34,2.54a1.28,1.28,0,0,0-1.35-1.25,1.32,1.32,0,0,0-1.41,1.25Z" style="fill:#090968"/><path d="M301,98.79a4,4,0,0,1,3,1.35l-1,.89a2.51,2.51,0,0,0-1.95-1c-.59,0-.87.23-.87.55s.3.49.86.59l.71.12c1.29.21,2.3.65,2.3,1.82s-1.05,1.93-2.5,1.93a3.74,3.74,0,0,1-3.23-1.71l1.17-.72a2.23,2.23,0,0,0,2,1.22c.69,0,1.07-.27,1.07-.63s-.31-.52-.91-.62l-.71-.12c-1.38-.22-2.25-.73-2.25-1.83S299.68,98.79,301,98.79Z" style="fill:#090968"/><path d="M136.18,86.7V30.25h9.07V86.7Zm20.7-30,26,30H171.68l-26.17-30L169.2,30.25h11.12Z" style="fill:#fff"/><path d="M221.87,30.25v8.12H204.43V86.7h-9.07V38.37H177.88l7.2-8.12Z" style="fill:#fff"/><path d="M261.13,39.4l-6.33,4.88c-3-4.54-7-6.85-11.89-6.85s-8.55,2.4-8.55,6.85c0,3.85,2.14,5.3,7.87,8l6.33,2.91c9.15,4.19,13.51,8.64,13.51,16.08a14.81,14.81,0,0,1-5.3,11.8,20.59,20.59,0,0,1-13.6,4.53,23.94,23.94,0,0,1-21.3-12.23l6.41-4.87c4.19,6,9.07,9,14.8,9s9.75-3.08,9.75-7.87c0-4-2.39-5.73-8.29-8.47l-6.25-2.91c-8.3-3.76-13.17-8.38-13.17-15.65a13.8,13.8,0,0,1,5.13-11.12,19.16,19.16,0,0,1,12.66-4.19A20.75,20.75,0,0,1,261.13,39.4Z" style="fill:#fff"/><path d="M277.92,30.25V78.58h25.83V86.7h-34.9V30.25Z" style="fill:#fff"/><polygon points="52.43 101.19 13.65 78.8 13.65 38.16 30.58 28.38 44.12 20.57 44.12 4.8 0 30.27 0 86.69 52.43 116.96 74.64 104.14 63.3 94.92 52.43 101.19" style="fill:#fff"/><polyline points="52.43 0 52.43 15.77 91.21 38.16 91.21 70.83 104.66 70.83 91.21 78.73 91.21 78.8 83.55 83.23 50.64 56.27 74.61 36.06 62.08 28.82 44.12 44.08 44.12 32.63 44.12 20.58 44.1 20.6 30.58 38.86 30.58 80.48 44.12 88.59 44.12 68.43 68.55 88.45 68.55 88.45 71.01 90.47 71.17 90.59 79.79 97.6 82.35 99.69 104.87 86.69 104.87 30.27 52.43 0" style="fill:#fff"/></g></g></svg>