<svg xmlns="http://www.w3.org/2000/svg" viewBox="0 0 92 58"><title>Asset 3</title><g id="e5521243-7819-4a77-8c91-c2650fd3a95a" data-name="Layer 2"><g id="35796fe7-31aa-4ffd-87ba-8ce0fd5b337b" data-name="Layer 1"><path id="4b646499-e7b0-42ce-854b-c1b180d37d7e" data-name="&lt;Compound Path&gt;" d="M47.15,46a4,4,0,0,1-4,4H4a4,4,0,0,1,0-8H43.15A4,4,0,0,1,47.15,46ZM88,42H84.58a4,4,0,1,0,0,8H88a4,4,0,0,0,0-8ZM14.29,12a12,12,0,0,1,24.07,0,12,12,0,0,1-24.07,0Zm8,0a4,4,0,1,0,4-3.95A4,4,0,0,0,22.29,12ZM75.4,46.05a12,12,0,1,1-12-11.94A12,12,0,0,1,75.4,46.05Zm-8,0a4,4,0,1,0-4,4A4,4,0,0,0,67.4,46.05ZM4,16H6.3a4,4,0,1,0,0-8H4a4,4,0,0,0,0,8Zm88-4a4,4,0,0,0-4-4H47.3a4,4,0,0,0,0,8H88A4,4,0,0,0,92,12Z" style="fill:#13e2cf"/></g></g></svg>