<svg xmlns="http://www.w3.org/2000/svg" viewBox="0 0 132.05 131.97"><title>Asset 4</title><g id="9ee2b124-e27d-4afe-928b-14f03989cecc" data-name="Layer 2"><g id="7e49de4d-79b9-4fd7-ae34-f5fc8b4a0036" data-name="Layer 1"><path d="M63.63,15.75a3.36,3.36,0,0,0,2.35-1,3.31,3.31,0,0,0,1-2.36V7.67a3.36,3.36,0,0,0-1.07-2.51,3.3,3.3,0,0,0-2.59-.84h0a3.29,3.29,0,0,0-2.94,3.35v4.74a3.3,3.3,0,0,0,3.3,3.34Z" style="fill:#13e2cf"/><path d="M8.19,64.85h-5A3.25,3.25,0,0,0,.86,65.93a3.29,3.29,0,0,0,2.59,5.51H8.19a3.27,3.27,0,0,0,2.37-.94,3.36,3.36,0,0,0,1-2.35,3.3,3.3,0,0,0-3.35-3.3Z" style="fill:#13e2cf"/><path d="M132,13a3.26,3.26,0,0,0-1.92-2.49L124.42,8l-2.06-5.77A3.3,3.3,0,0,0,118.7,0h0a3.25,3.25,0,0,0-1.65.83l-8.86,8a3.29,3.29,0,0,0-1,1.86l-1.85,10.45L93.2,33.22a46.19,46.19,0,0,0-53.32-5.56,46.47,46.47,0,0,0,45.69,80.93A46.68,46.68,0,0,0,103,45.17a3.28,3.28,0,0,0-4.37-1,3.32,3.32,0,0,0-1.34,4.3,39.93,39.93,0,0,1-15,54.35,39.42,39.42,0,0,1-54-14.94A40.07,40.07,0,0,1,43.07,33.37a39.54,39.54,0,0,1,45.44,4.49l-5.36,5.36a32.07,32.07,0,0,0-32.66-5,32.33,32.33,0,1,0,42,17.77,3.36,3.36,0,0,0-1.74-2.09,3.31,3.31,0,0,0-4.29,4.62,25.66,25.66,0,1,1-8-10.62l-5.41,5.41a18.21,18.21,0,1,0,7.68,14.89,3.29,3.29,0,1,0-6.54,0A11.38,11.38,0,1,1,68.26,58l-7.72,7.68a3.24,3.24,0,0,0-1,2.33,3.32,3.32,0,0,0,1,2.37,3.3,3.3,0,0,0,4.71,0L109.78,26l10.46-1.19A3.32,3.32,0,0,0,122.1,24L131,16A3.29,3.29,0,0,0,132,13Zm-13.56,5.34-6.08.67,1.08-6.08,4.33-3.81.88,2.47a3.29,3.29,0,0,0,1.8,1.91l2.27,1Z" style="fill:#13e2cf"/><path d="M123.85,64.85h-5a3.32,3.32,0,0,0-3.14,3.45,3.28,3.28,0,0,0,1.07,2.29,3.32,3.32,0,0,0,2.38.85h4.74a3.26,3.26,0,0,0,2.36-.94,3.32,3.32,0,0,0,1-2.35,3.3,3.3,0,0,0-3.34-3.3Z" style="fill:#13e2cf"/><path d="M63.63,120.49a3.26,3.26,0,0,0-2.35,1,3.33,3.33,0,0,0-1,2.37v4.79A3.3,3.3,0,0,0,66,131a3.26,3.26,0,0,0,.94-2.36v-4.79a3.28,3.28,0,0,0-3.29-3.35Z" style="fill:#13e2cf"/></g></g></svg>