<svg xmlns="http://www.w3.org/2000/svg" viewBox="0 0 92 64"><title>Cloud Cost Control</title><g id="4529326c-c9be-4c45-9f6c-5f592b42aab0" data-name="Layer 2"><g id="43141c57-603b-4590-af44-2765a4c5c31c" data-name="Layer 1"><path id="00d9b81f-5927-4431-a3c2-5c5ae3a2c923" data-name="&lt;Compound Path&gt;" d="M71.21,64c-20,0-52.9-.11-53.5-.11C9,63.89,1.59,57.28.21,48.17-.87,41.08,2.06,31.61,13.28,26.58,10.67,15.46,16.93,6.09,25.34,2.15a22.06,22.06,0,0,1,16.51-1A24.63,24.63,0,0,1,54,10.46a16,16,0,0,1,15.77-.27c4.22,2.37,8.09,7.44,7.68,15A19.77,19.77,0,0,1,92,45.78C91.32,54.56,84.56,64,71.21,64ZM34.93,8a14.64,14.64,0,0,0-6.19,1.39c-5.76,2.7-10.34,9.5-6.8,18.06a4,4,0,0,1-.07,3.23,4.05,4.05,0,0,1-2.43,2.12C7.5,36.5,7.76,44.58,8.12,47c.67,4.43,4.18,8.92,9.6,8.92h0c.33,0,33.43.11,53.48.11C79.49,56,83.58,50.58,84,45.21c.4-5.54-3-11.68-11.63-12.92A4,4,0,0,1,69,27.43c1.1-4.76-.07-8.5-3.22-10.26-2.59-1.45-6.73-1.41-10.15,1.95a4,4,0,0,1-6.35-1C45.35,10.63,39.88,8,34.93,8Z" style="fill:#13e2cf"/></g></g></svg>