<svg xmlns="http://www.w3.org/2000/svg" viewBox="0 0 92 58"><title>ControlM</title><g id="c065b30d-70ee-4ab9-a657-482da4489591" data-name="Layer 2"><g id="2466221c-2e71-4296-9d3f-3eb0be8b5982" data-name="Layer 1"><path id="8360080d-08e1-4a96-ac87-f20bb8cb5114" data-name="&lt;Compound Path&gt;" d="M47.15,46a4,4,0,0,1-4,4H4a4,4,0,0,1,0-8H43.15A4,4,0,0,1,47.15,46ZM88,42H84.58a4,4,0,1,0,0,8H88a4,4,0,0,0,0-8ZM14.29,12a12,12,0,0,1,24.07,0,12,12,0,0,1-24.07,0Zm8,0a4,4,0,1,0,4-3.95A4,4,0,0,0,22.29,12ZM75.4,46.05a12,12,0,1,1-12-11.94A12,12,0,0,1,75.4,46.05Zm-8,0a4,4,0,1,0-4,4A4,4,0,0,0,67.4,46.05ZM4,16H6.3a4,4,0,1,0,0-8H4a4,4,0,0,0,0,8Zm88-4a4,4,0,0,0-4-4H47.3a4,4,0,0,0,0,8H88A4,4,0,0,0,92,12Z" style="fill:#13e2cf"/></g></g></svg>