<svg xmlns="http://www.w3.org/2000/svg" viewBox="0 0 86 88"><title>Discovery</title><g id="1665aaa1-e9ea-4719-a338-f65e392a0af9" data-name="Layer 2"><g id="9a114460-b209-4199-9efc-e93f1cc43fa9" data-name="Layer 1"><path id="5e6ec8a8-6240-4d06-84a4-0cf9291904d7" data-name="&lt;Compound Path&gt;" d="M55,0A31.39,31.39,0,0,0,30.65,50.61L1.29,80.38a4.48,4.48,0,0,0,6.37,6.29L37.07,56.84a30.54,30.54,0,0,0,18,5.84A31.34,31.34,0,0,0,55,0Zm0,54.73A23.23,23.23,0,0,1,32,31.34a23,23,0,1,1,46,0A23.23,23.23,0,0,1,55,54.73Zm15.52-23a3.49,3.49,0,0,1-3.45,3l-.46,0a3.49,3.49,0,0,1-3-3.91c.69-5.21-5.11-7.93-5.36-8a3.48,3.48,0,0,1,2.84-6.35C61.58,16.58,72,21.31,70.56,31.71Zm-7.33,7.63a3.95,3.95,0,1,1-2.81-1.18A4,4,0,0,1,63.23,39.34Z" style="fill:#13e2cf"/></g></g></svg>