<svg xmlns="http://www.w3.org/2000/svg" viewBox="0 0 60.01 92"><title>FootPrints</title><g id="fd7d500f-746b-4c37-8616-e6dd568bf64f" data-name="Layer 2"><g id="f1d37a1d-8d3e-4fb5-84be-b0c09e457d56" data-name="Layer 1"><path d="M30,0A30.27,30.27,0,0,0,0,30.32c0,10.2,4,18.41,12,23.89V64a4.33,4.33,0,0,0,4.27,4h.37l27.51-2.22a4.16,4.16,0,0,0,3.85-4V54.28a29.68,29.68,0,0,0,12-24A30.25,30.25,0,0,0,30,0ZM42,48.48A3.86,3.86,0,0,0,40,52v6.1L20,59.68V52a3.86,3.86,0,0,0-1.8-3.46c-6.89-4-10.15-10-10.15-18.23A22.15,22.15,0,0,1,30,8a22.2,22.2,0,0,1,22,22.32C51.93,38.31,48.27,45.1,42,48.48Zm5.68,25.81A4,4,0,0,1,44,78.57l-27.32,2h-.29a4,4,0,0,1-.28-8l27.31-2A4,4,0,0,1,47.65,74.29ZM39,86.93a4,4,0,0,1-3.66,4.29L25.38,92h-.31a4,4,0,0,1-.3-8l9.91-.77A4,4,0,0,1,39,86.93Zm7-56.68a3.48,3.48,0,0,1-3.46,3.16l-.34,0A3.48,3.48,0,0,1,39,29.57a7.7,7.7,0,0,0-5-8,3.51,3.51,0,0,1-2.08-4.47A3.47,3.47,0,0,1,36.34,15C40.05,16.31,46.83,21.17,46,30.25Z" style="fill:#13e2cf"/></g></g></svg>