<svg xmlns="http://www.w3.org/2000/svg" viewBox="0 0 81.64 94.9"><title>KTSL AI</title><g id="3942cad3-eae0-4d44-a5f9-636efc2d1ba4" data-name="Layer 2"><g id="b87fee4f-607c-44aa-a8db-7a5699a88d4a" data-name="Layer 1"><path d="M80.6,47,72.2,34.2a2.89,2.89,0,0,1-.4-1.4A36,36,0,0,0,0,36,40.62,40.62,0,0,0,14.3,66.6a1.68,1.68,0,0,1,.6,1.1v19a5.67,5.67,0,0,0,5.2,5.7l28.5,2.5h.5a5.37,5.37,0,0,0,3.8-1.5,5.69,5.69,0,0,0,1.9-4.2V77.1h8.8A8.45,8.45,0,0,0,72,68.7V57h3.1a6.41,6.41,0,0,0,5.7-3.4,6.28,6.28,0,0,0-.2-6.6Zm-4.7,4a.83.83,0,0,1-.8.5H70.2a3.9,3.9,0,0,0-3.9,3.9V68.8a2.8,2.8,0,0,1-2.8,2.8h-10A4.44,4.44,0,0,0,49.1,76L49,89.5,20.4,86.89v-19a7.21,7.21,0,0,0-2.5-5.39A35.71,35.71,0,0,1,5.6,36.1,30.39,30.39,0,0,1,36,5.7,30,30,0,0,1,66.19,33.3a9,9,0,0,0,1.2,3.8L75.89,50a1.12,1.12,0,0,1,0,1Z" style="fill:#12e3cf"/><path d="M40.3,18.6a3.71,3.71,0,0,0-3.8-3.7,3.77,3.77,0,0,0-3.8,3.7,3.71,3.71,0,0,0,2,3.3V52.8a3.71,3.71,0,0,0-2,3.3,3.8,3.8,0,0,0,7.6,0,3.71,3.71,0,0,0-2-3.3V22a4,4,0,0,0,2-3.4Z" style="fill:#12e3cf"/><path d="M25.4,24.4a3.71,3.71,0,0,0,2-3.3,3.78,3.78,0,0,0-3.7-3.8,3.86,3.86,0,0,0-3.8,3.8,3.71,3.71,0,0,0,2,3.3v6.8h5.4v4.6H19.4a3.71,3.71,0,0,0-3.3-2,3.75,3.75,0,1,0,0,7.5,3.71,3.71,0,0,0,3.3-2h7.9v4.6H21.9v6.8a3.71,3.71,0,0,0-2,3.3,3.79,3.79,0,0,0,3.8,3.8,3.77,3.77,0,0,0,1.7-7.1V47.3h5.4V27.7H25.4Z" style="fill:#12e3cf"/><path d="M57,33.7a3.71,3.71,0,0,0-3.3,2H45.8V31.1h5.4V24.3a3.73,3.73,0,0,0,2-3.3,3.79,3.79,0,0,0-3.81-3.8,3.77,3.77,0,0,0-1.69,7.1v3.4H42.3V47.09h5.5v3.4a3.71,3.71,0,0,0,1.7,7,3.78,3.78,0,0,0,3.8-3.7,3.71,3.71,0,0,0-2-3.3V43.7H45.8V39.1h7.9a3.7,3.7,0,0,0,3.3,2,3.78,3.78,0,0,0,3.8-3.7A3.71,3.71,0,0,0,57,33.7Z" style="fill:#12e3cf"/></g></g></svg>