<svg xmlns="http://www.w3.org/2000/svg" viewBox="0 0 92 68"><title>Asset 8</title><g id="6ed6c72a-a233-4971-a759-8e9804ad4c82" data-name="Layer 2"><g id="69e0c9f6-7723-4d2b-8b25-f4bbee7ac567" data-name="Layer 1"><path id="e221a1f9-d8cc-4f64-ac10-f20a0b313064" data-name="&lt;Compound Path&gt;" d="M90.91,19.22,74,1.26A4,4,0,0,0,71.08,0H20.92A4,4,0,0,0,18,1.26l-16.92,18a4,4,0,0,0,.08,5.57l42,42a4,4,0,0,0,5.66,0l42-42A4,4,0,0,0,90.91,19.22ZM27.4,25l7.37,21.64L13.15,25Zm22-17,6.45,10H36.17L42.62,8ZM46,58.34V58.1L34.8,25H57.2L46,58.1ZM64.6,25H78.85L57.23,46.64Zm14.61-7H64.05L57.6,8H69.35ZM22.65,8H34.4L28,18H12.79Z" style="fill:#13e2cf"/></g></g></svg>