<svg xmlns="http://www.w3.org/2000/svg" viewBox="0 0 89 89"><title>remedy</title><g id="374d4b95-7eee-4fc4-ad7f-abea8d072186" data-name="Layer 2"><g id="14add3c2-aff8-4f67-9cf7-31bb7db4ba44" data-name="Layer 1"><path id="985b2520-d0fa-42bb-8b55-b91c7f05370d" data-name="&lt;Compound Path&gt;" d="M81.63,7.37a23.48,23.48,0,0,0-33.19,0L7.37,48.44A23.47,23.47,0,0,0,40.56,81.63L81.63,40.56a23.48,23.48,0,0,0,0-33.19ZM34.91,76A15.47,15.47,0,0,1,13,54.09L29.77,37.35c4.62,3,15.93,11.15,21.94,21.82ZM76,34.91,56.81,54.06c-6.4-10.35-16.59-18.12-22-21.76L54.09,13A15.48,15.48,0,0,1,76,13h0a15.48,15.48,0,0,1,0,21.88ZM56,23.17a3.49,3.49,0,0,1,0,4.95L51.2,32.9a3.5,3.5,0,0,1-5-4.95L51,23.17A3.49,3.49,0,0,1,56,23.17ZM64,15.11a4,4,0,1,1-2.83-1.17A4,4,0,0,1,64,15.11Z" style="fill:#13e2cf;stroke:#13e2cf;stroke-miterlimit:10"/></g></g></svg>