<svg xmlns="http://www.w3.org/2000/svg" viewBox="0 0 87 91"><title>Techbar2</title><g id="e5f18ee1-7ae2-4e57-acac-49e8c7cd5d4a" data-name="Layer 2"><g id="dc86b8a7-b4ca-48c3-bb31-0d36fa78634b" data-name="Layer 1"><path id="b9c4498b-3c3b-4633-adc6-2efcb813e06f" data-name="&lt;Compound Path&gt;" d="M43.5,25.22a4,4,0,0,1-4-4V4a4,4,0,0,1,8,0V21.22A4,4,0,0,1,43.5,25.22ZM31.57,29.09a4,4,0,0,0,.88-5.58L22.32,9.57a4,4,0,0,0-6.47,4.71L26,28.21a4,4,0,0,0,3.24,1.65A4,4,0,0,0,31.57,29.09ZM24.2,39.23a4,4,0,0,0-2.57-5L5.24,28.87a4,4,0,0,0-2.47,7.61L19.16,41.8a3.77,3.77,0,0,0,1.23.2A4,4,0,0,0,24.2,39.23Zm-19,22.9,16.39-5.32a4,4,0,1,0-2.47-7.61L2.77,54.52A4,4,0,0,0,4,62.32,4.11,4.11,0,0,0,5.24,62.13Zm17.08,19.3L32.45,67.49A4,4,0,0,0,26,62.79L15.85,76.72a4,4,0,0,0,.89,5.59,3.94,3.94,0,0,0,2.34.76A4,4,0,0,0,22.32,81.43ZM47.5,87V69.78a4,4,0,0,0-8,0V87a4,4,0,0,0,8,0Zm22.76-4.69a4,4,0,0,0,.89-5.59L61,62.79a4,4,0,0,0-6.47,4.7L64.68,81.43a4,4,0,0,0,3.24,1.64A3.94,3.94,0,0,0,70.26,82.31ZM86.8,59.56a4,4,0,0,0-2.57-5L67.84,49.2a4,4,0,0,0-2.47,7.61l16.39,5.32a4.11,4.11,0,0,0,1.24.19A4,4,0,0,0,86.8,59.56Zm-19-17.76,16.39-5.32a4,4,0,1,0-2.47-7.61L65.37,34.19A4,4,0,0,0,66.61,42,3.77,3.77,0,0,0,67.84,41.8ZM61,28.21,71.15,14.28a4,4,0,0,0-6.47-4.71L54.55,23.51A4,4,0,1,0,61,28.21Z" style="fill:#13e2cf"/></g></g></svg>