<svg xmlns="http://www.w3.org/2000/svg" viewBox="0 0 52 92"><title>Techbar</title><g id="c39f5b40-e94b-4888-b89a-3245a668e230" data-name="Layer 2"><g id="12c013b4-69dd-4c03-a31c-9b8d497b1dc5" data-name="Layer 1"><path id="555b5313-0f11-4652-af09-e05a4406ba02" data-name="&lt;Compound Path&gt;" d="M32.85,76a3,3,0,0,1-3,3h-7.7a3,3,0,0,1,0-6h7.7A3,3,0,0,1,32.85,76ZM52,84.4A7.6,7.6,0,0,1,44.4,92H7.6A7.6,7.6,0,0,1,0,84.4V7.6A7.6,7.6,0,0,1,7.6,0H44.4A7.6,7.6,0,0,1,52,7.6ZM8,8V61H44V8ZM44,84V67H8V84Z" style="fill:#13e2cf"/></g></g></svg>