<svg xmlns="http://www.w3.org/2000/svg" viewBox="0 0 87.19 108.45"><title>trackit</title><g id="4fb7c752-1ec6-4e11-ac55-3e7df25f4637" data-name="Layer 2"><g id="e68ff4e2-607b-4e3c-b6ff-6dd06a9a6c18" data-name="Layer 1"><path d="M61.61,25.17h0a18.84,18.84,0,0,0,1-6.1,19.07,19.07,0,1,0-38.13,0,18.84,18.84,0,0,0,1,6.1,43.6,43.6,0,1,0,36,0ZM43.6,7A12,12,0,0,1,55,22.79a43.53,43.53,0,0,0-22.88,0,12,12,0,0,1-.62-3.72h0A12.07,12.07,0,0,1,43.6,7Zm0,94.43A36.59,36.59,0,1,1,80.18,64.86,36.62,36.62,0,0,1,43.6,101.44Z" style="fill:#13e2cf"/><path d="M64.58,46.79c0-.11,0-.23,0-.34a3,3,0,0,0-.08-.32,2.2,2.2,0,0,0-.13-.36,1.18,1.18,0,0,0-.07-.2l-.06-.08c-.06-.11-.13-.22-.2-.33l-.18-.25-.24-.25a1.88,1.88,0,0,0-.25-.24c-.08-.07-.17-.12-.25-.18L62.74,44,62.66,44l-.2-.07-.36-.14-.32-.08-.34,0h-.68l-.34,0-.32.08a3.82,3.82,0,0,0-.36.13l-.19.08L36.13,55.58a3.52,3.52,0,0,0-1.59,1.58L23,80.59a1.18,1.18,0,0,0-.07.2,2.09,2.09,0,0,0-.13.35,2,2,0,0,0-.08.33c0,.11,0,.22-.05.34s0,.23,0,.34a1.83,1.83,0,0,0,0,.33c0,.12,0,.23.05.34a2,2,0,0,0,.08.33,2.09,2.09,0,0,0,.13.35,1.72,1.72,0,0,0,.07.21s0,0,0,.06a3.57,3.57,0,0,0,.5.72c0,.05.09.08.13.13a3.34,3.34,0,0,0,.54.44,1.64,1.64,0,0,0,.22.14l.15.1a2.83,2.83,0,0,0,.41.14,1.48,1.48,0,0,0,.27.1,3.73,3.73,0,0,0,.88.12,3.2,3.2,0,0,0,.87-.12l.28-.1a3.17,3.17,0,0,0,.4-.14L51.06,73.7a3.48,3.48,0,0,0,1.58-1.59L64.24,48.7a1.67,1.67,0,0,0,.08-.2c.05-.12.09-.24.13-.36a3,3,0,0,0,.07-.32c0-.12,0-.23.06-.35s0-.22,0-.33,0-.23,0-.35ZM46.89,67.93l-13,6.46,6.46-13,13.05-6.47Z" style="fill:#13e2cf"/></g></g></svg>