<svg xmlns="http://www.w3.org/2000/svg" viewBox="0 0 88 88"><title>Truesight</title><g id="08697bd5-d07e-4dee-8de9-453c34470625" data-name="Layer 2"><g id="33ce9f83-2d7a-4bc8-864a-86ba714b9026" data-name="Layer 1"><path id="a7c79c75-8698-49a4-84fe-9346b6ced9c5" data-name="&lt;Compound Path&gt;" d="M88,4V24a4,4,0,0,1-4,4h0a4,4,0,0,1-4-4V13.66L56.76,36.92a4,4,0,0,1-5.66-5.65L74.35,8H64a4,4,0,0,1,0-8H84a4,4,0,0,1,4,4ZM84,60a4,4,0,0,0-4,4V74.34L57.15,51.68a4.13,4.13,0,0,0-5.76,0,4,4,0,0,0-.06,5.66L74,80H63.59a4,4,0,0,0,0,8h20a4.51,4.51,0,0,0,3-1.17A4.24,4.24,0,0,0,88,84V64A4,4,0,0,0,84,60ZM30.85,51.51,8,74.34V64a4,4,0,0,0-4-4h0a4,4,0,0,0-4,4V84a4,4,0,0,0,4,4h20a4,4,0,1,0,0-8H13.72L36.54,57.16a4,4,0,0,0-5.69-5.65ZM13.65,8.36H24a4,4,0,1,0,0-8H4a4,4,0,0,0-4,4v20a4,4,0,0,0,8,0V14L31.06,37.1a4,4,0,0,0,5.66-5.66Z" style="fill:#13e2cf"/></g></g></svg>