<svg xmlns="http://www.w3.org/2000/svg" viewBox="0 0 92 92"><title>Truesight Operations Management</title><g id="36052837-d71d-4e6c-a687-924d987e9d53" data-name="Layer 2"><g id="2e4423c0-5b08-4de5-899b-0ce506011484" data-name="Layer 1"><path id="e040e3fb-aff6-49b9-92d8-8c8b99f5414f" data-name="&lt;Compound Path&gt;" d="M46,65.3A19.28,19.28,0,1,1,65.28,46,19.3,19.3,0,0,1,46,65.3Zm0-31.49A12.21,12.21,0,1,0,58.2,46,12.22,12.22,0,0,0,46,33.81ZM46,92h-.55a60.43,60.43,0,0,1-6.65-.4,3.55,3.55,0,0,1-3.06-3l-1-7.15a37.34,37.34,0,0,1-6.35-2.69L22.75,83a3.56,3.56,0,0,1-4.29,0,60.84,60.84,0,0,1-5-4.42l-.38-.39a56.72,56.72,0,0,1-4.42-5,3.54,3.54,0,0,1,0-4.3L13,63.08a36.41,36.41,0,0,1-2.58-6.38l-7-1a3.54,3.54,0,0,1-3-3.06A60.2,60.2,0,0,1,0,46v-.55A60.43,60.43,0,0,1,.4,38.8a3.55,3.55,0,0,1,3-3.06l7.17-1a37.14,37.14,0,0,1,2.69-6.33L9,22.75a3.56,3.56,0,0,1,0-4.29,60.84,60.84,0,0,1,4.42-5l.39-.38a56.72,56.72,0,0,1,5-4.42,3.53,3.53,0,0,1,4.3,0L28.93,13a36.85,36.85,0,0,1,6.36-2.58l1-7a3.54,3.54,0,0,1,3.06-3A60.2,60.2,0,0,1,46,0h.55A60.43,60.43,0,0,1,53.2.4a3.55,3.55,0,0,1,3.06,3l1,7.18a37.44,37.44,0,0,1,6.33,2.68L69.25,9a3.56,3.56,0,0,1,4.29,0,60.84,60.84,0,0,1,5,4.42l.38.39a56.72,56.72,0,0,1,4.42,5,3.53,3.53,0,0,1,0,4.3L79,28.92a36.67,36.67,0,0,1,2.59,6.37l7,1a3.55,3.55,0,0,1,3,3.06A60.2,60.2,0,0,1,92,46v.55a60.43,60.43,0,0,1-.4,6.65,3.55,3.55,0,0,1-3,3.06l-7.17,1a36.75,36.75,0,0,1-2.68,6.34L83,69.25a3.56,3.56,0,0,1,0,4.29,60.84,60.84,0,0,1-4.42,5l-.39.38a56.72,56.72,0,0,1-5,4.42,3.53,3.53,0,0,1-4.3,0L63.06,79a36.43,36.43,0,0,1-6.35,2.58l-1,7a3.55,3.55,0,0,1-3.06,3A60.2,60.2,0,0,1,46,92Zm-3.63-7.18c.91.06,2,.1,3.08.1H46c1.11,0,2.19,0,3.09-.1l.94-6.6a3.54,3.54,0,0,1,2.71-3,29.76,29.76,0,0,0,8.79-3.56,3.57,3.57,0,0,1,2.69-.4,3.45,3.45,0,0,1,1.4.71l5.26,4c.69-.6,1.48-1.32,2.26-2.1l.38-.39c.79-.78,1.51-1.57,2.12-2.26l-4-5.31a3.56,3.56,0,0,1-.17-4,29.44,29.44,0,0,0,3.65-8.49,3.54,3.54,0,0,1,3-2.91l6.69-.91c.06-.91.1-2,.1-3.08V46c0-1.11,0-2.18-.1-3.1L78.24,42a3.54,3.54,0,0,1-2.94-2.71,30,30,0,0,0-3.51-8.7,3.3,3.3,0,0,1-.38-.75,3.56,3.56,0,0,1,.52-3.32L76,21.12c-.6-.69-1.32-1.48-2.1-2.26l-.39-.38c-.79-.79-1.58-1.52-2.26-2.12l-5.32,4a3.54,3.54,0,0,1-4.22,0,30,30,0,0,0-8.52-3.56,3.56,3.56,0,0,1-2.66-3l-.91-6.69c-.91-.06-2-.1-3.08-.1H46c-1.11,0-2.18,0-3.1.1L42,13.78a3.54,3.54,0,0,1-3,3,29.53,29.53,0,0,0-8.55,3.5,3.5,3.5,0,0,1-2.72.39A3.43,3.43,0,0,1,26.35,20l-5.23-4c-.69.6-1.47,1.32-2.26,2.1l-.38.39c-.79.79-1.52,1.58-2.12,2.26l4,5.32a3.55,3.55,0,0,1,.21,4l-.21.3a29.66,29.66,0,0,0-3.54,8.48,3.54,3.54,0,0,1-3,2.65l-6.68.92c-.06.91-.1,2-.1,3.08V46c0,1.11,0,2.18.1,3.1l6.6.93a3.53,3.53,0,0,1,3,3s0,.09,0,.13a29.8,29.8,0,0,0,3.46,8.38,3.53,3.53,0,0,1-.33,4.12L16,70.88c.61.69,1.33,1.47,2.11,2.26l.39.38c.79.79,1.58,1.52,2.26,2.12l5.32-4a3.56,3.56,0,0,1,4.41.11,29.71,29.71,0,0,0,8.32,3.45,3.55,3.55,0,0,1,2.66,3Z" style="fill:#13e2cf"/></g></g></svg>