<svg xmlns="http://www.w3.org/2000/svg" viewBox="0 0 92 64"><title>Truesight Cloud Cost Control</title><g id="587de630-cfb8-440f-adcd-8f950e7170fa" data-name="Layer 2"><g id="89e67005-c821-4cd1-bea9-8e4c441dfa7e" data-name="Layer 1"><path id="21e9d90e-d21e-4507-83c3-cdd7ebee48b3" data-name="&lt;Compound Path&gt;" d="M71.21,64c-20,0-52.9-.11-53.5-.11C9,63.89,1.59,57.28.21,48.17-.87,41.08,2.06,31.61,13.28,26.58,10.67,15.46,16.93,6.09,25.34,2.15a22.06,22.06,0,0,1,16.51-1A24.63,24.63,0,0,1,54,10.46a16,16,0,0,1,15.77-.27c4.22,2.37,8.09,7.44,7.68,15A19.77,19.77,0,0,1,92,45.78C91.32,54.56,84.56,64,71.21,64ZM34.93,8a14.64,14.64,0,0,0-6.19,1.39c-5.76,2.7-10.34,9.5-6.8,18.06a4,4,0,0,1-.07,3.23,4.05,4.05,0,0,1-2.43,2.12C7.5,36.5,7.76,44.58,8.12,47c.67,4.43,4.18,8.92,9.6,8.92h0c.33,0,33.43.11,53.48.11C79.49,56,83.58,50.58,84,45.21c.4-5.54-3-11.68-11.63-12.92A4,4,0,0,1,69,27.43c1.1-4.76-.07-8.5-3.22-10.26-2.59-1.45-6.73-1.41-10.15,1.95a4,4,0,0,1-6.35-1C45.35,10.63,39.88,8,34.93,8Z" style="fill:#13e2cf"/><path d="M37,45V42.59c1.59-.66,3.36-2.37,3.36-4.41a8.08,8.08,0,0,0-.09-1.2H37.34V33.89h2.4a12.84,12.84,0,0,1-.24-2.43c0-3.78,2.76-6.27,6.78-6.27a7.74,7.74,0,0,1,3.54.72l-.75,3.45a5.07,5.07,0,0,0-2.52-.54,2.54,2.54,0,0,0-2.79,2.82A9.42,9.42,0,0,0,44,33.89h4.11V37H44.42a5.63,5.63,0,0,1-.27,2.13,5.16,5.16,0,0,1-1.47,2.13v.06h8V45Z" style="fill:#13e2cf"/></g></g></svg>