<svg xmlns="http://www.w3.org/2000/svg" viewBox="0 0 87.78 90"><title>Workflow Studio</title><g id="5434dbc8-a090-46d5-8ba4-362c87c4f342" data-name="Layer 2"><g id="d6e56a23-d1f7-4295-8f79-883d8345dc29" data-name="Layer 1"><path id="67f3be69-d960-40af-8204-668505781375" data-name="&lt;Compound Path&gt;" d="M80.92,69.61V48c0-6.09-4.33-11-10.44-11H47.92V20.39a10.64,10.64,0,1,0-8,0c0,.05,0,.09,0,.13V37H17.37C11.26,37,6.92,42,6.92,48V69.61A10.7,10.7,0,0,0,0,79.41,10.49,10.49,0,0,0,10.47,90,10.81,10.81,0,0,0,21.32,79.41c0-4.42-3.4-8.22-6.4-9.8V48c0-1.68.78-3,2.45-3H39.92V69.61a10.43,10.43,0,0,0-6.62,9.8,10.63,10.63,0,0,0,21.25,0,10.43,10.43,0,0,0-6.63-9.8V45H70.48c1.67,0,2.44,1.36,2.44,3V69.61c-3,1.58-6.31,5.38-6.31,9.8A10.75,10.75,0,0,0,77.39,90,10.42,10.42,0,0,0,87.78,79.41,10.64,10.64,0,0,0,80.92,69.61ZM43.93,6a4.59,4.59,0,1,1-4.6,4.59A4.6,4.6,0,0,1,43.93,6ZM10.32,84a4.59,4.59,0,1,1,4.6-4.59A4.6,4.6,0,0,1,10.32,84Zm33.61,0a4.59,4.59,0,1,1,4.6-4.59A4.6,4.6,0,0,1,43.93,84Zm33.6,0a4.59,4.59,0,1,1,4.6-4.59A4.6,4.6,0,0,1,77.53,84Z" style="fill:#13e2cf"/></g></g></svg>