<svg xmlns="http://www.w3.org/2000/svg" viewBox="0 0 303.75 116.96"><title>KTSL-no-strap</title><g id="b6ea0012-0425-4c40-a722-a2923b849177" data-name="Layer 2"><g id="2f77ae2e-fa1b-43f3-8138-856f0f991545" data-name="Layer 1"><path d="M136.18,86.7V30.25h9.07V86.7Zm20.7-30,26,30H171.68l-26.17-30L169.2,30.25h11.12Z" style="fill:#fff"/><path d="M221.87,30.25v8.12H204.43V86.7h-9.07V38.37H177.88l7.2-8.12Z" style="fill:#fff"/><path d="M261.13,39.4l-6.33,4.88c-3-4.54-7-6.85-11.89-6.85s-8.55,2.4-8.55,6.85c0,3.85,2.14,5.3,7.87,8l6.33,2.91c9.15,4.19,13.51,8.64,13.51,16.08a14.81,14.81,0,0,1-5.3,11.8,20.59,20.59,0,0,1-13.6,4.53,23.94,23.94,0,0,1-21.3-12.23l6.41-4.87c4.19,6,9.07,9,14.8,9s9.75-3.08,9.75-7.87c0-4-2.39-5.73-8.29-8.47l-6.25-2.91c-8.3-3.76-13.17-8.38-13.17-15.65a13.8,13.8,0,0,1,5.13-11.12,19.16,19.16,0,0,1,12.66-4.19A20.75,20.75,0,0,1,261.13,39.4Z" style="fill:#fff"/><path d="M277.92,30.25V78.58h25.83V86.7h-34.9V30.25Z" style="fill:#fff"/><polygon points="52.43 101.19 13.65 78.8 13.65 38.16 30.58 28.38 44.12 20.57 44.12 4.8 0 30.27 0 86.69 52.43 116.96 74.64 104.14 63.3 94.92 52.43 101.19" style="fill:#fff"/><polyline points="52.43 0 52.43 15.77 91.21 38.16 91.21 70.83 104.66 70.83 91.21 78.73 91.21 78.8 83.55 83.23 50.64 56.27 74.61 36.06 62.08 28.82 44.12 44.08 44.12 32.63 44.12 20.58 44.1 20.6 30.58 38.86 30.58 80.48 44.12 88.59 44.12 68.43 68.55 88.45 68.55 88.45 71.01 90.47 71.17 90.59 79.79 97.6 82.35 99.69 104.87 86.69 104.87 30.27 52.43 0" style="fill:#fff"/></g></g></svg>