<svg xmlns="http://www.w3.org/2000/svg" viewBox="0 0 104.87 116.96"><title>ktsl-white</title><g id="a1193acb-e6a8-4e31-9b21-55610295ae6d" data-name="Layer 2"><g id="ae03e96d-0db4-4ea5-b882-399a457afdb6" data-name="Layer 1"><polygon points="52.43 101.19 13.65 78.8 13.65 38.16 30.58 28.38 44.12 20.57 44.12 4.8 0 30.27 0 86.69 52.43 116.96 74.64 104.14 63.3 94.92 52.43 101.19" style="fill:#fff"/><polyline points="52.43 0 52.43 15.77 91.21 38.16 91.21 70.83 104.66 70.83 91.21 78.73 91.21 78.8 83.55 83.23 50.64 56.27 74.61 36.06 62.08 28.82 44.12 44.08 44.12 32.63 44.12 20.58 44.1 20.6 30.58 38.86 30.58 80.48 44.12 88.59 44.12 68.43 68.55 88.45 68.55 88.45 71.01 90.47 71.17 90.59 79.79 97.6 82.35 99.69 104.87 86.69 104.87 30.27 52.43 0" style="fill:#fff"/></g></g></svg>